{"title":"Reykjavik.Whale.Watching.Massacre.2009.720p.BRRip.H264.Feel-Free","uid":5919783,"size":1122132962,"categoryP":"video","categoryS":"hd___movies","magnet":"?xt=urn:btih:b16aaf560aa9e1c9a47c76aa7af72451cbf12e39&amp;dn=Reykjavik.Whale.Watching.Massacre.2009.720p.BRRip.H264.Feel-Free&amp;tr=udp%3A%2F%2Ftracker.openbittorrent.com%3A80&amp;tr=udp%3A%2F%2Fopen.demonii.com%3A1337&amp;tr=udp%3A%2F%2Ftracker.coppersurfer.tk%3A6969&amp;tr=udp%3A%2F%2Fexodus.desync.com%3A6969","seeders":0,"leechers":1,"uploader":"deffjam555","files":9,"time":1288359322,"description":"cover\n\nGenre: Horror\nLanguage:English\nIMDb:http://www.imdb.com/title/tt1075749/\nSource:720p.BluRay.x264-CiNEFiLE\n\nGeneral\nComplete name :Reykjavik.Whale.Watching.Massacre.2009.720p.BRRip.H264.Feel-Free\nFormat : MPEG-4\nFormat profile : Base Media\nCodec ID : isom\nFile size : 1.04 GiB\nDuration : 1h 23mn\nOverall bit rate : 1 788 Kbps\nVideo #1\nCodec ID : avc1\nCodec ID/Info : Advanced Video Coding\nDuration : 1h 23mn\nBit rate mode : Variable\nBit rate : 1 464 Kbps\nWidth : 1 280 pixels\nHeight : 544 pixels\nDisplay aspect ratio : 2.35:1\nFrame rate mode : Constant\nFrame rate : 23.976 fps\nResolution : 24 bits\nColorimetry : 4:2:0\nScan type : Progressive\nBits/(Pixel*Frame) : 0.088\nStream size : 876 MiB (82%)\nAudio #2\nID : 2\nFormat : AAC\nFormat/Info : Advanced Audio Codec\nFormat version : Version 4\nFormat profile : LC\nFormat settings, SBR : No\nCodec ID : 40\nDuration : 1h 23mn\nBit rate mode : Variable\nBit rate : 320 Kbps\nChannel(s) : 6 channels\nChannel positions : Front: L C R, Rear: L R, LFE\nSampling rate : 48.0 KHz\nResolution : 16 bits\nStream size : 191 MiB (18%)\n\nPlot:\nAn epic tale about a group of whale watchers, whose ship breaks down and they get picked up by a whale fisher vessel. The Fishbillies on the vessel has just gone bust, and everything goes out of control.\n\nscreens\n &lt;a href=&quot;\nhttp://img816.imageshack.us/img816/6742/vlcsnap2010102900h13m05.jpg&quot; rel=&quot;nofollow&quot; target=&quot;_NEW&quot;&gt;\nhttp://img816.imageshack.us/img816/6742/vlcsnap2010102900h13m05.jpg&lt;/a&gt; &lt;a href=&quot;\nhttp://img214.imageshack.us/img214/8563/vlcsnap2010102900h13m50.jpg&quot; rel=&quot;nofollow&quot; target=&quot;_NEW&quot;&gt;\nhttp://img214.imageshack.us/img214/8563/vlcsnap2010102900h13m50.jpg&lt;/a&gt; &lt;a href=&quot;\nhttp://img217.imageshack.us/img217/9984/vlcsnap2010102900h14m05.jpg&quot; rel=&quot;nofollow&quot; target=&quot;_NEW&quot;&gt;\nhttp://img217.imageshack.us/img217/9984/vlcsnap2010102900h14m05.jpg&lt;/a&gt; &lt;a href=&quot;\nhttp://img143.imageshack.us/img143/9718/vlcsnap2010102900h14m37.jpg&quot; rel=&quot;nofollow&quot; target=&quot;_NEW&quot;&gt;\nhttp://img143.imageshack.us/img143/9718/vlcsnap2010102900h14m37.jpg&lt;/a&gt; &lt;a href=&quot;\nhttp://img12.imageshack.us/img12/6125/vlcsnap2010102900h16m10.jpg&quot; rel=&quot;nofollow&quot; target=&quot;_NEW&quot;&gt;\nhttp://img12.imageshack.us/img12/6125/vlcsnap2010102900h16m10.jpg&lt;/a&gt;","torrent":{"xt":"urn:btih:b16aaf560aa9e1c9a47c76aa7af72451cbf12e39","amp;dn":"Reykjavik.Whale.Watching.Massacre.2009.720p.BRRip.H264.Feel-Free","amp;tr":["udp%3A%2F%2Ftracker.openbittorrent.com%3A80","udp%3A%2F%2Fopen.demonii.com%3A1337","udp%3A%2F%2Ftracker.coppersurfer.tk%3A6969","udp%3A%2F%2Fexodus.desync.com%3A6969"],"infoHash":"b16aaf560aa9e1c9a47c76aa7af72451cbf12e39","infoHashBuffer":{"type":"Buffer","data":[177,106,175,86,10,169,225,201,164,124,118,170,122,247,36,81,203,241,46,57]},"announce":[],"urlList":[]}}